<?xml version="1.0" encoding="utf-8"?>
<!-- Generator: Adobe Illustrator 28.3.0, SVG Export Plug-In . SVG Version: 6.00 Build 0)  -->
<svg version="1.1" xmlns="http://www.w3.org/2000/svg" xmlns:xlink="http://www.w3.org/1999/xlink" x="0px" y="0px"
	 viewBox="0 0 1000 2000" style="enable-background:new 0 0 1000 2000;" xml:space="preserve">
<g id="R">
	<g>
		<path d="M380.7,875.8H334v104.1h-58.6V695.5h105.7c33.6,0,59.5,7.5,77.7,22.5c18.2,15,27.3,36.1,27.3,63.5
			c0,19.4-4.2,35.6-12.6,48.5c-8.4,13-21.1,23.3-38.2,31l61.5,116.2v2.7H434L380.7,875.8z M334,828.3h47.3
			c14.7,0,26.1-3.7,34.2-11.2c8.1-7.5,12.1-17.8,12.1-31c0-13.4-3.8-24-11.4-31.6c-7.6-7.7-19.3-11.5-35.1-11.5H334V828.3z"/>
	</g>
</g>
<g id="O">
	<g>
		<path d="M729.4,1127.2c0,28-5,52.5-14.8,73.6c-9.9,21.1-24.1,37.4-42.5,48.8c-18.4,11.5-39.6,17.2-63.4,17.2
			c-23.6,0-44.6-5.7-63.1-17c-18.5-11.3-32.8-27.5-43-48.5c-10.2-21-15.3-45.2-15.4-72.6v-14.1c0-28,5-52.6,15.1-73.9
			c10.1-21.3,24.3-37.6,42.8-49c18.4-11.4,39.5-17.1,63.2-17.1c23.7,0,44.8,5.7,63.2,17.1c18.4,11.4,32.7,27.7,42.8,49
			c10.1,21.3,15.1,45.9,15.1,73.7V1127.2z M670,1114.3c0-29.8-5.3-52.5-16-68c-10.7-15.5-25.9-23.2-45.7-23.2
			c-19.7,0-34.8,7.7-45.5,22.9c-10.7,15.3-16.1,37.7-16.2,67.3v13.9c0,29,5.3,51.6,16,67.6c10.7,16,26,24,46.1,24
			c19.7,0,34.8-7.7,45.3-23.1s15.9-37.9,16-67.5V1114.3z"/>
	</g>
</g>
</svg>
